# xmcd CD database file
#
# Track frame offsets:
#	150
#	21620
#	51982
#	88060
#	104907
#	161884
#	210730
#	288490
#	307587
#
# Disc length: 4181 seconds
#
# Revision: 4
# Processed by: cddbd v1.5.2PL0 Copyright (c) Steve Scherf et al.
# Submitted via: CDex 1.51
#
DISCID=86105309
DTITLE=Albert Collins - Molten Ice
DYEAR=1992
DGENRE=Blues
TTITLE0=Introduction Instrumental
TTITLE1=All About My Girl
TTITLE2=I've Got A Mind To Travel
TTITLE3=Things That I Used To Do
TTITLE4=Frosty
TTITLE5=Wah Heat
TTITLE6=Can't You See What You're Doing To Me
TTITLE7=Cold Tremor
TTITLE8=Johnny B. Cool
EXTD=Toronto, 1973, with the Moe Peters Band YEAR: 1992
EXTT0=
EXTT1=
EXTT2=
EXTT3=
EXTT4=
EXTT5=
EXTT6=
EXTT7=
EXTT8=
PLAYORDER=
